<svg xmlns="http://www.w3.org/2000/svg" xmlns:xlink="http://www.w3.org/1999/xlink" width="1920" zoomAndPan="magnify" viewBox="0 0 1440 1439.999935" height="1920" preserveAspectRatio="xMidYMid meet" version="1.0"><defs><g/></defs><g fill="#4494dd" fill-opacity="1"><g transform="translate(0.215446, 1016.98392)"><g><path d="M 43.671875 -222.40625 C 22.640625 -232.644531 12.125 -251.242188 12.125 -278.203125 C 12.125 -305.160156 22.910156 -324.03125 44.484375 -334.8125 C 229.410156 -444.257812 335.625 -507.335938 363.125 -524.046875 C 390.625 -540.753906 407.066406 -549.921875 412.453125 -551.546875 C 418.378906 -554.234375 425.390625 -555.578125 433.484375 -555.578125 C 448.035156 -555.578125 463.128906 -542.367188 478.765625 -515.953125 C 489.015625 -499.253906 494.140625 -486.722656 494.140625 -478.359375 C 494.140625 -470.003906 492.25 -462.863281 488.46875 -456.9375 C 483.625 -448.3125 472.570312 -438.335938 455.3125 -427.015625 C 294.644531 -332.117188 211.078125 -282.515625 204.609375 -278.203125 L 455.3125 -129.390625 C 465.5625 -123.460938 472.84375 -118.613281 477.15625 -114.84375 C 489.019531 -105.132812 494.953125 -94.617188 494.953125 -83.296875 C 494.953125 -72.515625 490.234375 -59.441406 480.796875 -44.078125 C 471.359375 -28.710938 462.863281 -17.796875 455.3125 -11.328125 C 447.769531 -4.859375 439.953125 -1.625 431.859375 -1.625 C 421.078125 -1.625 407.0625 -6.742188 389.8125 -16.984375 Z M 43.671875 -222.40625 "/></g></g></g><g fill="#4494dd" fill-opacity="1"><g transform="translate(507.293556, 1016.98392)"><g><path d="M 142.34375 6.46875 C 138.03125 15.632812 134.660156 22.375 132.234375 26.6875 C 129.804688 31 125.757812 35.175781 120.09375 39.21875 C 114.4375 43.269531 107.023438 45.296875 97.859375 45.296875 C 88.691406 45.296875 75.210938 41.25 57.421875 33.15625 C 39.628906 25.070312 27.628906 17.925781 21.421875 11.71875 C 15.222656 5.519531 12.125 -1.347656 12.125 -8.890625 C 12.125 -16.441406 15.359375 -29.921875 21.828125 -49.328125 L 282.25 -593.59375 C 292.488281 -614.082031 301.65625 -625.945312 309.75 -629.1875 C 314.0625 -631.34375 320.394531 -632.421875 328.75 -632.421875 C 337.101562 -632.421875 350.71875 -628.101562 369.59375 -619.46875 C 398.707031 -605.457031 413.265625 -590.09375 413.265625 -573.375 C 413.265625 -566.363281 409.488281 -552.882812 401.9375 -532.9375 Z M 142.34375 6.46875 "/></g></g></g><g fill="#4494dd" fill-opacity="1"><g transform="translate(932.689197, 1016.98392)"><g><path d="M 461.78125 -334.8125 C 483.351562 -324.03125 494.140625 -305.160156 494.140625 -278.203125 C 494.140625 -251.242188 483.625 -232.644531 462.59375 -222.40625 L 117.265625 -16.984375 C 89.765625 0.804688 67.660156 2.691406 50.953125 -11.328125 C 43.398438 -17.796875 35.582031 -27.5 27.5 -40.4375 C 16.707031 -58.226562 11.3125 -71.164062 11.3125 -79.25 C 11.3125 -87.34375 12.929688 -94.351562 16.171875 -100.28125 C 22.097656 -109.445312 33.691406 -119.148438 50.953125 -129.390625 L 302.46875 -278.203125 L 51.75 -427.015625 C 42.050781 -432.941406 34.773438 -437.789062 29.921875 -441.5625 C 18.054688 -451.8125 12.125 -462.867188 12.125 -474.734375 C 12.125 -485.515625 16.707031 -498.445312 25.875 -513.53125 C 42.59375 -541.5625 58.226562 -555.578125 72.78125 -555.578125 C 85.71875 -555.578125 100.273438 -550.457031 116.453125 -540.21875 Z M 461.78125 -334.8125 "/></g></g></g></svg>